HIERARCHY
ROOT Hips
{
	OFFSET 0.000000 121.760803 0.000000
	CHANNELS 6 Xposition Yposition Zposition Xrotation Yrotation Zrotation 
	JOINT Spine
	{
		OFFSET 0.072000 7.257294 -0.789700
		CHANNELS 3 Xrotation Yrotation Zrotation
		JOINT Spine1
		{
			OFFSET 0.000000 12.508769 -0.658067
			CHANNELS 3 Xrotation Yrotation Zrotation
			JOINT Spine1_split
			{
				OFFSET 0.000000 12.508769 -0.658067
				CHANNELS 3 Xrotation Yrotation Zrotation
				JOINT Spine2
				{
					OFFSET 0.000000 12.508769 -0.658067
					CHANNELS 3 Xrotation Yrotation Zrotation
					JOINT Neck
					{
						OFFSET 0.000000 14.033295 7.520400
						CHANNELS 3 Xrotation Yrotation Zrotation
						JOINT Head
						{
							OFFSET 0.000000 8.198502 5.703100
							CHANNELS 3 Xrotation Yrotation Zrotation
							JOINT HeadTop_End
							{
								OFFSET 0.000000 17.760803 13.332701
								CHANNELS 3 Xrotation Yrotation Zrotation
								End Site
								{
									OFFSET 0.000000 0.000000 0.000000
								}
							}
						}
					}
					JOINT LeftShoulder
					{
						OFFSET 6.292450 5.785301 -0.669000
						CHANNELS 3 Xrotation Yrotation Zrotation
						JOINT LeftShoulder_split
						{
							OFFSET 6.292450 5.785301 -0.669000
							CHANNELS 3 Xrotation Yrotation Zrotation
							JOINT LeftArm
							{
								OFFSET 13.907140 -6.093903 1.965100
								CHANNELS 3 Xrotation Yrotation Zrotation
								JOINT LeftForeArm
								{
									OFFSET 34.140198 0.000000 0.000000
									CHANNELS 3 Xrotation Yrotation Zrotation
									JOINT LeftHand
									{
										OFFSET 40.960209 0.000000 0.000000
										CHANNELS 3 Xrotation Yrotation Zrotation
										JOINT LeftHandThumb1
										{
											OFFSET 10.006996 -7.170425 9.573125
											CHANNELS 3 Xrotation Yrotation Zrotation
											JOINT LeftHandThumb2
											{
												OFFSET 1.835007 -1.059448 1.059443
												CHANNELS 3 Xrotation Yrotation Zrotation
												JOINT LeftHandThumb3
												{
													OFFSET 2.112267 -1.219513 1.219518
													CHANNELS 3 Xrotation Yrotation Zrotation
													JOINT LeftHandThumb4
													{
														OFFSET 4.843811 -2.796570 2.796576
														CHANNELS 3 Xrotation Yrotation Zrotation
														End Site
														{
															OFFSET 0.000000 0.000000 0.000000
														}
													}
												}
											}
										}
										JOINT LeftHandIndex1
										{
											OFFSET 18.389847 -0.922348 4.596882
											CHANNELS 3 Xrotation Yrotation Zrotation
											JOINT LeftHandIndex2
											{
												OFFSET 4.711273 0.000000 0.000000
												CHANNELS 3 Xrotation Yrotation Zrotation
												JOINT LeftHandIndex3
												{
													OFFSET 2.886131 0.000000 0.000000
													CHANNELS 3 Xrotation Yrotation Zrotation
													JOINT LeftHandIndex4
													{
														OFFSET 6.145912 0.000000 0.000000
														CHANNELS 3 Xrotation Yrotation Zrotation
														End Site
														{
															OFFSET 0.000000 0.000000 0.000000
														}
													}
												}
											}
										}
										JOINT LeftHandMiddle1
										{
											OFFSET 18.013008 0.000000 0.000000
											CHANNELS 3 Xrotation Yrotation Zrotation
											JOINT LeftHandMiddle2
											{
												OFFSET 4.946693 0.000000 0.000000
												CHANNELS 3 Xrotation Yrotation Zrotation
												JOINT LeftHandMiddle3
												{
													OFFSET 3.342232 0.000000 0.000000
													CHANNELS 3 Xrotation Yrotation Zrotation
													JOINT LeftHandMiddle4
													{
														OFFSET 4.461754 0.000000 0.000000
														CHANNELS 3 Xrotation Yrotation Zrotation
														End Site
														{
															OFFSET 0.000000 0.000000 0.000000
														}
													}
												}
											}
										}
										JOINT LeftHandRing1
										{
											OFFSET 15.849892 -0.102921 -4.126150
											CHANNELS 3 Xrotation Yrotation Zrotation
											JOINT LeftHandRing2
											{
												OFFSET 3.527054 0.000000 0.000000
												CHANNELS 3 Xrotation Yrotation Zrotation
												JOINT LeftHandRing3
												{
													OFFSET 2.961098 0.000000 0.000000
													CHANNELS 3 Xrotation Yrotation Zrotation
													JOINT LeftHandRing4
													{
														OFFSET 4.927200 0.000000 0.000000
														CHANNELS 3 Xrotation Yrotation Zrotation
														End Site
														{
															OFFSET 0.000000 0.000000 0.000000
														}
													}
												}
											}
										}
										JOINT LeftHandPinky1
										{
											OFFSET 12.791824 -0.832031 -6.799156
											CHANNELS 3 Xrotation Yrotation Zrotation
											JOINT LeftHandPinky2
											{
												OFFSET 3.327133 0.000000 0.000000
												CHANNELS 3 Xrotation Yrotation Zrotation
												JOINT LeftHandPinky3
												{
													OFFSET 3.014900 0.000000 0.000000
													CHANNELS 3 Xrotation Yrotation Zrotation
													JOINT LeftHandPinky4
													{
														OFFSET 5.847786 0.000000 0.000000
														CHANNELS 3 Xrotation Yrotation Zrotation
														End Site
														{
															OFFSET 0.000000 0.000000 0.000000
														}
													}
												}
											}
										}
									}
								}
							}
						}
					}
					JOINT RightShoulder
					{
						OFFSET -6.292450 5.785301 -0.669000
						CHANNELS 3 Xrotation Yrotation Zrotation
						JOINT RightShoulder_split
						{
							OFFSET -6.292450 5.785301 -0.669000
							CHANNELS 3 Xrotation Yrotation Zrotation
							JOINT RightArm
							{
								OFFSET -13.907140 -6.093903 1.965100
								CHANNELS 3 Xrotation Yrotation Zrotation
								JOINT RightForeArm
								{
									OFFSET -34.140198 0.000000 0.000000
									CHANNELS 3 Xrotation Yrotation Zrotation
									JOINT RightHand
									{
										OFFSET -40.960209 0.000000 0.000000
										CHANNELS 3 Xrotation Yrotation Zrotation
										JOINT RightHandThumb1
										{
											OFFSET -10.007050 -7.170456 9.573117
											CHANNELS 3 Xrotation Yrotation Zrotation
											JOINT RightHandThumb2
											{
												OFFSET -1.835007 -1.059448 1.059443
												CHANNELS 3 Xrotation Yrotation Zrotation
												JOINT RightHandThumb3
												{
													OFFSET -2.112267 -1.219513 1.219518
													CHANNELS 3 Xrotation Yrotation Zrotation
													JOINT RightHandThumb4
													{
														OFFSET -4.843834 -2.796585 2.796590
														CHANNELS 3 Xrotation Yrotation Zrotation
														End Site
														{
															OFFSET 0.000000 0.000000 0.000000
														}
													}
												}
											}
										}
										JOINT RightHandIndex1
										{
											OFFSET -18.389870 -0.922424 4.596786
											CHANNELS 3 Xrotation Yrotation Zrotation
											JOINT RightHandIndex2
											{
												OFFSET -4.711273 0.000000 0.000000
												CHANNELS 3 Xrotation Yrotation Zrotation
												JOINT RightHandIndex3
												{
													OFFSET -2.886131 0.000000 0.000000
													CHANNELS 3 Xrotation Yrotation Zrotation
													JOINT RightHandIndex4
													{
														OFFSET -6.145920 0.000000 0.000000
														CHANNELS 3 Xrotation Yrotation Zrotation
														End Site
														{
															OFFSET 0.000000 0.000000 0.000000
														}
													}
												}
											}
										}
										JOINT RightHandMiddle1
										{
											OFFSET -18.013008 0.000000 0.000000
											CHANNELS 3 Xrotation Yrotation Zrotation
											JOINT RightHandMiddle2
											{
												OFFSET -4.946693 0.000000 0.000000
												CHANNELS 3 Xrotation Yrotation Zrotation
												JOINT RightHandMiddle3
												{
													OFFSET -3.342232 0.000000 0.000000
													CHANNELS 3 Xrotation Yrotation Zrotation
													JOINT RightHandMiddle4
													{
														OFFSET -4.461754 0.000000 0.000000
														CHANNELS 3 Xrotation Yrotation Zrotation
														End Site
														{
															OFFSET 0.000000 0.000000 0.000000
														}
													}
												}
											}
										}
										JOINT RightHandRing1
										{
											OFFSET -15.849876 -0.102936 -4.126237
											CHANNELS 3 Xrotation Yrotation Zrotation
											JOINT RightHandRing2
											{
												OFFSET -3.527054 0.000000 0.000000
												CHANNELS 3 Xrotation Yrotation Zrotation
												JOINT RightHandRing3
												{
													OFFSET -2.961098 0.000000 0.000000
													CHANNELS 3 Xrotation Yrotation Zrotation
													JOINT RightHandRing4
													{
														OFFSET -4.927200 0.000000 0.000000
														CHANNELS 3 Xrotation Yrotation Zrotation
														End Site
														{
															OFFSET 0.000000 0.000000 0.000000
														}
													}
												}
											}
										}
										JOINT RightHandPinky1
										{
											OFFSET -12.791786 -0.832077 -6.799222
											CHANNELS 3 Xrotation Yrotation Zrotation
											JOINT RightHandPinky2
											{
												OFFSET -3.327133 0.000000 0.000000
												CHANNELS 3 Xrotation Yrotation Zrotation
												JOINT RightHandPinky3
												{
													OFFSET -3.014900 0.000000 0.000000
													CHANNELS 3 Xrotation Yrotation Zrotation
													JOINT RightHandPinky4
													{
														OFFSET -5.847786 0.000000 0.000000
														CHANNELS 3 Xrotation Yrotation Zrotation
														End Site
														{
															OFFSET 0.000000 0.000000 0.000000
														}
													}
												}
											}
										}
									}
								}
							}
						}
					}
				}
			}
		}
	}
	JOINT LeftUpLeg
	{
		OFFSET 13.026900 -6.336304 -1.092800
		CHANNELS 3 Xrotation Yrotation Zrotation
		JOINT LeftLeg
		{
			OFFSET 0.524474 -46.096886 9.782700
			CHANNELS 3 Xrotation Yrotation Zrotation
			JOINT LeftFoot
			{
				OFFSET -0.524474 -53.427422 -12.948200
				CHANNELS 3 Xrotation Yrotation Zrotation
				JOINT LeftToeBase
				{
					OFFSET 0.192200 -14.009700 16.364100
					CHANNELS 3 Xrotation Yrotation Zrotation
					JOINT LeftToe_End
					{
						OFFSET -1.784700 -0.561700 9.474800
						CHANNELS 3 Xrotation Yrotation Zrotation
						End Site
						{
							OFFSET 0.000000 0.000000 0.000000
						}
					}
				}
			}
		}
	}
	JOINT RightUpLeg
	{
		OFFSET -12.883000 -6.336304 -1.092800
		CHANNELS 3 Xrotation Yrotation Zrotation
		JOINT RightLeg
		{
			OFFSET -0.524587 -46.096825 9.782800
			CHANNELS 3 Xrotation Yrotation Zrotation
			JOINT RightFoot
			{
				OFFSET 0.524587 -53.427383 -12.948300
				CHANNELS 3 Xrotation Yrotation Zrotation
				JOINT RightToeBase
				{
					OFFSET -0.192200 -14.009700 16.364100
					CHANNELS 3 Xrotation Yrotation Zrotation
					JOINT RightToe_End
					{
						OFFSET 1.784700 -0.561700 9.474800
						CHANNELS 3 Xrotation Yrotation Zrotation
						End Site
						{
							OFFSET 0.000000 0.000000 0.000000
						}
					}
				}
			}
		}
	}
}
MOTION
Frames: 4
Frame Time: 0.016667
-15.415729 83.160660 -5.410746 -2.879409 3.170372 1.084048 8.967306 1.614052 -2.687192 3.966863 0.230935 -3.978306 0.000000 0.000000 0.000000 3.989348 0.231038 -3.977842 5.038292 -8.338509 11.033142 -0.460167 -3.911049 -10.648854 -0.000001 -0.000000 -0.000000 -8.173990 -31.527989 -8.252500 0.000000 0.000000 0.000000 -31.588559 -14.766823 -24.997738 -124.594562 -59.639682 -127.258732 -8.365609 -5.660515 17.684051 15.614808 18.236692 11.488220 11.421628 30.331344 -11.339191 2.081484 57.074311 29.941664 -0.000004 -0.000001 -0.000001 19.961286 12.194195 -48.814392 -0.280078 1.062277 -128.835195 -0.439145 0.794144 -96.525879 -0.000005 0.000002 0.000002 7.703400 10.532954 -62.910885 0.990450 -0.061695 -121.377352 0.940074 -0.338443 -98.726860 0.000001 -0.000000 -0.000002 0.948587 15.112207 -68.414303 0.879500 -0.210890 -117.521205 0.879920 0.333444 -117.027560 0.000001 0.000000 -0.000001 -16.314204 19.696860 -71.347678 0.695856 -0.323403 -142.818450 0.584937 0.047115 -85.973128 0.000000 -0.000002 0.000000 -8.947958 32.923230 10.353827 0.000000 0.000000 0.000000 -34.168411 8.238681 31.408864 50.102853 118.312346 -44.867537 -7.430160 8.835779 -25.387557 17.261073 -16.812987 -12.690476 10.409534 -24.931142 14.714516 -0.718619 -60.920014 -34.719115 -0.000001 0.000001 0.000003 19.952624 -0.387273 46.095929 -0.057016 -1.141823 137.151537 -0.365261 -0.886889 100.484561 0.000004 -0.000002 0.000000 6.186507 -2.518733 61.008015 0.941173 0.201321 126.871392 0.934510 0.366315 97.857247 -0.000002 -0.000000 0.000000 0.195751 -7.578811 62.006219 0.865285 0.303842 119.921470 0.873712 -0.346677 114.873195 -0.000003 -0.000002 0.000005 -17.990691 -11.912570 65.482670 0.676368 0.402121 146.296109 0.561365 -0.084828 77.911217 -0.000005 -0.000001 -0.000000 -66.754437 -7.887199 4.459973 60.708538 -18.409341 -8.781074 5.692653 -3.659794 -3.533555 -0.327626 1.263338 0.837212 -0.000000 0.000003 -0.000000 -13.265796 -2.823030 -3.775708 77.855284 -10.209312 -6.800741 -30.148656 0.528350 16.775030 -33.259965 -0.280186 -0.982790 -0.000000 -0.000001 -0.000000 
-15.712214 85.884521 -5.146814 -0.935566 4.904253 1.385932 8.268093 1.319776 -2.879499 2.568483 -0.078458 -4.312727 0.000000 0.000000 0.000000 2.590950 -0.078385 -4.312242 0.090884 -9.587590 9.553648 -0.716501 -4.945426 -10.676961 -0.000000 0.000000 0.000000 -8.485030 -28.820468 -9.252593 0.000000 0.000000 0.000000 -25.663311 -15.710632 -18.176254 -134.370339 -56.428981 -136.822636 -8.621289 -3.463227 20.162344 14.821213 17.379387 11.215545 10.269869 28.734869 -10.694101 3.816898 51.183532 25.752743 -0.000001 0.000001 0.000003 16.649752 9.371642 -44.593929 -0.351039 0.994007 -120.047350 -0.450132 0.742115 -90.659901 -0.000002 -0.000000 0.000000 6.076241 7.776699 -58.086832 1.006498 0.042507 -113.465677 0.918453 -0.280447 -93.415008 -0.000005 -0.000000 0.000000 0.133079 12.601307 -64.387189 0.867705 -0.128594 -110.199768 0.875326 0.402496 -109.997191 0.000002 0.000001 0.000000 -15.415769 16.999642 -68.074993 0.715040 -0.239994 -133.253234 0.559371 0.071258 -81.706001 0.000003 0.000001 -0.000002 -8.020596 29.104092 7.655832 0.000000 0.000000 0.000000 -24.846584 11.304230 29.134568 32.701966 121.145030 -30.427403 -8.088093 5.625856 -27.490518 15.061793 -14.238118 -12.274960 10.652957 -26.601767 13.514497 0.666365 -59.059519 -32.370148 0.000001 0.000002 0.000001 19.237421 0.147148 44.669967 -0.156360 -1.095419 130.775993 -0.382749 -0.820931 96.368922 0.000001 0.000002 0.000004 5.981524 -1.717679 59.670561 0.967289 0.104964 121.723670 0.918745 0.315207 94.635939 0.000000 0.000002 -0.000001 0.026748 -7.126146 61.895345 0.865376 0.227831 115.797620 0.865964 -0.385797 111.152238 0.000001 0.000001 0.000002 -16.993705 -12.001651 65.678594 0.697921 0.337683 141.340055 0.548706 -0.092650 77.197489 -0.000001 -0.000000 -0.000000 -65.582452 -7.650685 2.594921 56.708807 -18.178369 -7.939488 6.407509 -3.459418 -4.050796 -0.327582 1.261706 0.837200 -0.000000 -0.000001 -0.000000 -13.072712 -3.825259 -3.327611 73.510314 -10.739582 -7.000085 -29.671807 0.791889 16.003809 -31.601950 -0.221404 -1.036661 -0.000000 -0.000000 -0.000000 
-15.978353 88.799713 -4.795175 1.174197 6.545433 1.597468 7.516558 0.985484 -3.050454 1.064139 -0.427328 -4.603813 0.000000 0.000000 0.000000 1.086618 -0.427256 -4.603351 -5.694805 -10.493379 7.608347 -0.030810 -6.025158 -10.033724 -0.000000 0.000000 0.000000 -8.676807 -25.765731 -10.075466 0.000000 0.000000 0.000000 -18.326612 -15.006479 -10.670920 -143.139947 -54.309583 -144.303838 -8.338692 -4.453255 22.583588 13.542277 15.852898 10.916864 8.824504 26.648357 -9.992335 4.898059 43.714737 21.422463 -0.000001 0.000002 0.000003 13.337089 4.780023 -39.370754 -0.419284 0.892988 -109.137749 -0.454492 0.674954 -83.429162 -0.000000 -0.000001 -0.000001 4.808485 3.926239 -52.134301 1.003532 0.176435 -103.588828 0.884249 -0.208919 -86.733055 0.000001 0.000001 -0.000001 -0.215169 9.437563 -59.277894 0.838038 -0.028823 -100.964580 0.855862 0.491791 -101.072306 -0.000001 -0.000000 -0.000001 -13.745429 13.901466 -63.510500 0.719982 -0.132182 -121.198756 0.524457 0.100536 -76.122431 0.000002 -0.000000 0.000001 -7.681965 25.388561 6.444248 0.000000 0.000000 0.000000 -12.655757 14.347784 25.486339 5.490629 121.793625 -9.171632 -8.726477 2.964761 -28.818655 11.624272 -10.440128 -11.249742 11.086797 -29.256190 11.708969 2.424944 -56.368141 -29.269194 0.000000 0.000000 0.000000 18.267570 0.888050 42.688522 -0.289860 -1.006615 121.263370 -0.397277 -0.723566 90.136074 0.000001 0.000001 -0.000000 5.769982 -0.545431 57.834873 0.983935 -0.035233 114.143280 0.887844 0.243707 89.818142 0.000001 0.000000 -0.000001 -0.199855 -6.376005 61.868858 0.850967 0.117618 109.628764 0.847143 -0.441574 105.483372 -0.000000 0.000002 -0.000004 -15.494089 -12.026834 66.080871 0.715318 0.240925 133.925939 0.527591 -0.104289 75.889317 -0.000000 0.000000 0.000001 -64.245948 -7.576929 0.683551 52.371466 -17.881264 -6.868538 7.172675 -3.227917 -4.675337 -0.327522 1.259960 0.837202 0.000000 -0.000001 0.000000 -13.018382 -4.415954 -2.691524 68.852958 -11.451546 -7.279136 -28.442967 1.068151 15.395803 -30.433895 -0.163525 -1.037279 0.000000 -0.000000 -0.000000 
-16.309658 93.812500 -3.990672 4.097484 8.532691 1.928875 6.668817 0.525200 -3.221402 -0.631357 -0.805343 -4.887747 0.000000 0.000000 0.000000 -0.608881 -0.805297 -4.887267 -14.077577 -10.176106 5.940331 3.281338 -6.836341 -9.520005 -0.000000 -0.000000 -0.000001 -8.036797 -21.485214 -9.500182 0.000000 0.000000 0.000000 -14.726083 -11.896510 -5.740293 -146.957093 -62.475276 -145.446269 -7.887415 -6.581189 25.772399 11.852993 13.783160 10.547932 7.134286 24.125478 -9.310046 5.160869 34.926842 17.070559 -0.000001 -0.000002 -0.000002 10.702060 -1.002505 -33.147403 -0.468596 0.763121 -96.351969 -0.448527 0.595534 -74.891808 0.000002 0.000002 0.000001 4.375459 -0.409740 -44.950698 0.966625 0.328668 -91.921055 0.833309 -0.129194 -78.725997 0.000002 0.000000 -0.000001 0.232653 6.121634 -52.931958 0.782593 0.078113 -89.957368 0.812007 0.593271 -90.465330 -0.000001 0.000003 -0.000001 -11.103505 10.841504 -57.415854 0.696325 -0.010316 -106.970352 0.478936 0.131770 -69.211359 0.000001 -0.000002 0.000001 -7.296021 21.402413 5.049865 0.000000 0.000000 0.000000 -4.773017 12.248326 21.979743 -14.800952 116.232471 8.083287 -8.901738 3.776059 -31.299591 4.230391 -1.918583 -6.476949 12.275598 -36.017896 7.415593 5.146849 -51.012709 -23.813388 -0.000003 0.000002 0.000001 16.370754 2.829274 38.403790 -0.505731 -0.751325 100.224775 -0.374746 -0.534458 76.581870 -0.000000 0.000002 -0.000000 5.422012 2.068118 53.814377 0.933719 -0.307695 97.586963 0.796543 0.120377 79.643236 -0.000000 -0.000001 -0.000000 -0.820409 -4.841764 62.096965 0.758526 -0.091744 96.422621 0.788608 -0.533193 93.583222 -0.000002 -0.000000 -0.000001 -12.071952 -12.450865 67.577379 0.690984 0.049067 118.162273 0.483722 -0.121019 73.959201 0.000002 -0.000002 -0.000000 -60.889484 -7.737833 -2.029113 44.720903 -17.593753 -4.942672 8.445176 -2.395400 -5.751894 -0.327486 1.258042 0.837213 0.000000 0.000001 0.000000 -12.161893 -5.180338 -1.963689 60.517662 -12.459187 -7.975695 -25.590181 1.592334 14.743310 -28.929686 -0.136838 -1.025474 0.000000 -0.000000 -0.000000 
